<svg xmlns="http://www.w3.org/2000/svg" x="0px" y="0px"
width="384" height="384"
viewBox="0 0 172 172"
style=" fill:#000000;"><g transform="translate(4.73,4.73) scale(0.945,0.945)"><g fill="none" fill-rule="nonzero" stroke="none" stroke-width="none" stroke-linecap="butt" stroke-linejoin="none" stroke-miterlimit="10" stroke-dasharray="" stroke-dashoffset="0" font-family="none" font-weight="none" font-size="none" text-anchor="none" style="mix-blend-mode: normal"><g fill="#000000" stroke="#ffffff" stroke-width="10" stroke-linejoin="round"><path d="M100.33333,21.5v104.77051c-7.16667,2.07833 -22.07333,2.72949 -28.66667,2.72949c-16.69833,0 -41.64225,-4.15667 -41.64225,-35.83333c0,-26.47367 18.41621,-35.83333 38.31087,-35.83333c2.6445,0 8.01121,0.12329 10.49805,1.13379v-36.96712zM136.16667,21.5v21.5h-21.5v-21.5zM136.16667,57.33333v62.3584c0,7.16667 -1.68148,30.78027 -22.50781,37.94694l-20.49219,-9.28027c14.89233,-6.493 21.5,-17.802 21.5,-28.66667v-62.3584zM52.96615,93.16667c0,15.19333 9.10223,18.15462 18.49056,18.15462c2.29333,0 4.86829,-0.43448 7.37663,-1.00781v-33.70573c-2.50833,-0.57333 -5.0833,-0.99382 -7.37663,-0.99382c-9.38833,0 -18.49056,2.3594 -18.49056,17.55274z"></path></g><path d="M0,172v-172h172v172z" fill="none" stroke="none" stroke-width="1" stroke-linejoin="miter"></path><g fill="#000000" stroke="none" stroke-width="1" stroke-linejoin="miter"><path d="M78.83333,21.5v36.96712c-2.48683,-1.0105 -7.85355,-1.13379 -10.49805,-1.13379c-19.89467,0 -38.31087,9.35967 -38.31087,35.83333c0,31.67667 24.94392,35.83333 41.64225,35.83333c6.59333,0 21.5,-0.65116 28.66667,-2.72949v-104.77051zM114.66667,21.5v21.5h21.5v-21.5zM114.66667,57.33333v62.3584c0,10.86467 -6.60767,22.17367 -21.5,28.66667l20.49219,9.28027c20.82633,-7.16667 22.50781,-30.78027 22.50781,-37.94694v-62.3584zM71.45671,75.61393c2.29333,0 4.86829,0.42048 7.37663,0.99382v33.70573c-2.50833,0.57333 -5.0833,1.00781 -7.37663,1.00781c-9.38833,0 -18.49056,-2.96129 -18.49056,-18.15462c0,-15.19333 9.10223,-17.55274 18.49056,-17.55274z"></path></g><path d="" fill="none" stroke="none" stroke-width="1" stroke-linejoin="miter"></path></g></g></svg>