<?xml version="1.0" encoding="UTF-8"?>
<svg xmlns="http://www.w3.org/2000/svg" xmlns:xlink="http://www.w3.org/1999/xlink" viewBox="0 0 500 500" width="500px" height="500px">
<g id="surface7277079">
<path style="fill-rule:nonzero;fill:rgb(0%,0%,0%);fill-opacity:1;stroke-width:10;stroke-linecap:butt;stroke-linejoin:round;stroke:rgb(100%,100%,100%);stroke-opacity:1;stroke-miterlimit:10;" d="M 10.957606 53.293552 C 10.452811 56.650794 16.936938 52.677844 15.432507 56.558367 C 16.959689 58.419709 21.155886 56.980688 21.04924 59.595668 C 23.276025 59.746396 24.038195 61.620536 26.129894 61.765576 C 28.296958 62.742461 32.218717 63.516006 32.955291 65.957507 C 30.805291 67.661012 25.832705 62.44385 25.592394 67.153374 C 26.242229 74.10959 26.07586 81.279101 28.622586 87.901158 C 29.825562 91.912501 32.741998 95.070669 35.381151 98.19471 C 37.902282 101.253341 41.319246 103.409029 44.800199 105.222025 C 47.855986 106.66389 51.152084 107.609492 54.482309 108.212402 C 55.830324 107.18006 58.212104 103.343618 60.320867 104.960384 C 60.420404 106.78049 56.143155 108.761277 60.118949 108.562203 C 62.455225 107.856912 64.071991 110.368089 65.998744 108.104333 C 67.770503 110.203142 73.368751 106.760583 72.106052 111.054895 C 70.399703 112.15549 67.912699 111.495702 66.20635 113.008665 C 63.389452 111.602349 61.147024 114.267097 58.030093 113.930093 C 54.566204 114.548645 51.044015 114.796066 47.534623 114.803175 C 41.777117 114.349571 35.8959 114.161873 30.415675 112.15549 C 27.330027 111.258235 24.31121 109.499273 21.600959 107.741734 C 18.845205 105.57467 15.913128 103.49719 13.908168 100.573645 C 9.683532 95.416204 6.431515 89.445404 4.206151 83.171727 C 2.860979 79.09213 2.398843 74.716766 0.665476 70.795007 C -1.14752 67.946826 0.978307 64.829895 4.098082 63.922686 C 5.488757 63.653936 7.925992 62.348578 4.978274 63.284227 C 2.336276 65.223777 2.080324 61.522421 4.790575 61.287798 C 6.640542 61.044643 7.324504 59.525992 6.691733 58.163757 C 4.70668 56.871198 11.50506 55.447818 8.082407 53.515377 C 6.300694 51.591469 7.547751 50.443949 8.976819 50.323082 C 10.404464 50.203638 12.01412 51.110847 10.957606 53.293552 Z M 8.526058 53.057507 C 6.688889 50.660086 11.982837 53.459921 10.118651 50.948744 C 9.724769 50.635913 9.335152 50.567659 8.996726 50.652977 C 7.978605 50.906085 7.4084 52.534227 8.526058 53.057507 Z M 145.279994 53.273645 C 145.279994 53.148512 145.270041 54.028704 145.252977 55.90711 C 145.235914 57.19967 145.22596 58.940146 145.22596 61.120007 L 145.272885 77.7626 C 145.272885 78.223314 145.400861 78.455093 145.649703 78.455093 C 145.914188 78.455093 146.320867 78.223314 146.871165 77.7626 C 148.344313 76.610814 150.147356 75.109227 152.294512 73.247884 C 152.721099 72.804233 152.931549 72.444478 152.931549 72.179994 C 152.931549 71.700794 152.216304 71.368056 150.781549 71.171826 C 150.162997 71.099306 149.86723 70.756614 149.901357 70.136641 C 149.953969 69.518089 150.268222 69.247917 150.835583 69.337501 C 152.112501 69.516667 153.973844 69.609094 156.419611 69.626158 C 158.121694 69.643221 159.816668 69.653175 161.498844 69.653175 C 162.049141 69.670239 162.325001 70.001555 162.325001 70.641436 C 162.325001 71.242924 161.891304 71.569974 161.021066 71.622587 C 159.655987 71.673777 158.371959 71.98803 157.164717 72.555391 C 155.479697 73.318982 153.675233 74.66131 151.7627 76.573843 C 151.621926 76.68049 151.555094 76.81131 151.555094 76.970569 C 151.555094 77.21799 151.853705 77.810946 152.455193 78.75086 C 154.670603 82.118056 156.762303 84.666204 158.730292 86.382507 C 159.990147 87.463195 161.173215 88.002117 162.270967 88.002117 C 163.087171 88.002117 163.586278 88.063261 163.782508 88.177018 C 163.978738 88.290774 164.078275 88.595073 164.078275 89.091337 C 164.078275 89.709888 163.661641 90.044048 162.828374 90.078175 C 161.587005 90.095239 159.970239 90.181978 157.963857 90.339815 C 156.969909 90.536046 156.257508 90.415179 155.835186 89.970106 C 153.03393 86.956978 150.656416 83.803076 148.705491 80.504134 C 148.547653 80.222587 148.342891 80.074703 148.094049 80.074703 C 147.792594 80.074703 147.272157 80.340609 146.529895 80.873843 C 145.696628 81.334557 145.279994 81.992924 145.279994 82.841833 C 145.279994 83.444743 145.292792 84.313559 145.326919 85.449703 C 145.361046 86.584425 145.649703 87.325265 146.180094 87.679333 C 146.551225 87.926753 147.411509 88.122983 148.759525 88.263757 C 149.592792 88.370404 150.009426 88.681813 150.009426 89.197983 C 150.009426 89.607507 149.942594 89.860616 149.807508 89.957309 C 149.673844 90.054002 149.326886 90.079597 148.759525 90.024141 C 146.987766 89.866304 143.991701 89.948777 139.769908 90.287203 C 138.707706 90.375364 138.128969 90.244544 138.043652 89.890477 C 138.009525 89.766767 137.989617 89.583334 137.989617 89.352977 C 137.989617 88.802679 138.531383 88.384624 139.614915 88.103076 C 140.588956 87.855655 141.080953 86.712401 141.080953 84.676158 L 141.080953 61.435682 C 141.080953 59.981019 140.935914 58.974273 140.6501 58.40549 C 140.261906 57.680291 139.447124 57.115774 138.204333 56.70625 C 137.619908 56.51002 137.331251 56.23416 137.331251 55.880093 C 137.331251 55.366766 137.742197 54.97004 138.574042 54.684227 C 139.902151 54.240576 141.173381 53.627712 142.376357 52.849901 C 143.350398 52.21002 143.953308 51.895768 144.183665 51.895768 C 144.910285 51.895768 145.279994 52.350794 145.279994 53.273645 Z M 84.461442 53.434326 C 84.461442 53.361806 84.425893 54.250529 84.353374 56.094809 C 84.302183 57.849504 84.286542 59.582871 84.306449 61.28211 L 84.407408 85.02596 C 84.407408 86.106647 84.673314 86.888724 85.206548 87.377878 C 85.739782 87.865609 86.655523 88.192659 87.948083 88.351919 C 88.750067 88.437236 89.143949 88.738691 89.143949 89.252018 C 89.143949 89.960153 88.745801 90.271562 87.948083 90.186244 C 85.502315 89.955887 82.476389 89.984326 78.857507 90.287203 C 78.132309 90.358301 77.68297 90.342659 77.513757 90.238856 C 77.345966 90.13221 77.264915 89.837864 77.264915 89.358665 C 77.264915 88.933499 77.744114 88.576588 78.709624 88.283665 C 79.676555 87.992163 80.161442 87.116237 80.161442 85.664419 L 80.161442 61.604895 C 80.161442 60.170139 79.946727 59.113625 79.530093 58.439617 C 79.11346 57.765609 78.385417 57.239485 77.338856 56.866932 C 76.788559 56.670701 76.512699 56.401951 76.512699 56.047884 C 76.512699 55.51465 76.910847 55.109392 77.708565 54.844908 C 78.912964 54.456713 80.164286 53.852381 81.458268 53.0376 C 82.52047 52.397719 83.198744 52.083466 83.480292 52.083466 C 84.137236 52.083466 84.461442 52.529961 84.461442 53.434326 Z M 49.531052 54.985682 C 50.648711 55.164848 53.283598 55.254432 57.431449 55.254432 C 62.322983 55.254432 66.553307 55.146363 70.116733 54.933069 C 71.304068 54.860549 71.897024 54.96293 71.897024 55.228836 C 71.889915 55.316998 71.881383 55.38383 71.864319 55.45635 C 71.561442 56.643684 71.375166 58.635847 71.30549 61.435682 C 71.30549 61.985979 71.062335 62.263261 70.567494 62.263261 C 70.071231 62.263261 69.725695 62.021528 69.532309 61.54375 C 68.999075 60.249769 68.495702 59.348248 68.013658 58.836343 C 67.446297 58.233433 66.688393 57.865146 65.749901 57.741436 C 64.738889 57.582176 62.229134 57.505391 58.204994 57.505391 C 57.282143 57.505391 56.676389 57.59924 56.390576 57.794048 C 56.211409 57.91918 56.128936 58.185086 56.128936 58.59461 L 56.128936 70.641436 C 56.128936 71.05096 56.382044 71.242924 56.893949 71.22586 C 58.473744 71.208797 60.757408 71.099306 63.754895 70.903076 C 64.339319 70.830556 64.740311 70.641436 64.943651 70.331449 C 65.146991 70.022884 65.344643 69.223744 65.540873 67.926918 C 65.664584 67.217362 66.07553 66.941502 66.785086 67.100761 C 67.386575 67.224471 67.646793 67.500331 67.557209 67.926918 C 67.062368 70.338559 66.901687 73.476819 67.079432 77.338856 C 67.097917 77.800993 66.80215 78.044147 66.19924 78.078274 C 65.704399 78.130887 65.4001 77.870669 65.272123 77.286244 C 64.811409 75.070834 63.955391 73.883499 62.70549 73.73135 C 61.457011 73.580622 59.416502 73.503837 56.598182 73.503837 C 56.278241 73.503837 56.121826 73.626125 56.121826 73.852216 L 56.121826 85.812302 C 56.121826 86.699604 56.45172 87.305358 57.110086 87.625298 C 57.621991 87.891204 58.729696 88.131515 60.428936 88.344809 C 61.294908 88.434392 61.677414 88.816899 61.570768 89.486641 C 61.464121 90.072487 60.684888 90.302845 59.233069 90.179134 C 55.032606 89.84213 51.565873 89.854928 48.838559 90.226059 C 48.074967 90.332706 47.696727 90.021297 47.696727 89.291833 C 47.696727 88.831118 48.077811 88.5709 48.838559 88.499802 C 50.576191 88.303572 51.445007 86.779233 51.445007 83.923942 L 51.445007 61.161244 C 51.445007 59.990973 51.237401 59.089451 50.820768 58.459524 C 50.404134 57.831019 49.627745 57.256548 48.495867 56.740377 C 47.787732 56.420437 47.520404 55.98674 47.696727 55.436442 C 47.78631 55.099438 47.92424 54.913162 48.119048 54.879035 C 48.298215 54.827844 48.767461 54.861971 49.531052 54.985682 Z M 11.852017 56.040774 L 12.375298 56.067791 C 13.679233 55.894313 13.515708 55.611343 13.040774 55.510384 C 12.56584 55.409425 11.783763 55.491899 11.852017 56.040774 Z M 14.472685 60.153076 C 16.092295 60.194313 13.77877 57.978903 15.708367 58.984227 C 15.39127 57.949041 13.460251 57.757077 12.517493 57.344709 C 11.979993 58.287467 13.598181 60.16303 14.472685 60.153076 Z M 9.433267 59.944048 C 10.81541 58.901753 14.218155 60.565444 12.032606 58.903175 C 11.819312 58.716899 7.25625 60.164451 9.433267 59.944048 Z M 12.685284 61.053175 C 12.076687 61.329035 6.44289 62.493618 8.008466 62.665675 C 10.232407 61.909194 13.202877 61.07166 14.565113 62.598843 C 13.893948 61.400133 14.552315 60.521363 15.526356 62.337203 C 16.892857 64.158731 17.660714 62.051389 17.1417 61.040377 C 18.201058 62.22629 19.173677 62.644346 17.623743 60.791535 C 18.083036 60.238393 18.083036 59.973909 17.804332 59.897123 C 16.968221 59.666766 13.62662 61.07166 12.685284 61.053175 Z M 16.850199 60.697686 C 16.973909 60.781581 17.06918 60.901026 17.1417 61.040377 C 17.045007 60.932309 16.946892 60.81713 16.850199 60.697686 Z M 18.120007 62.954332 C 14.811111 63.64256 11.809359 64.953605 8.472024 65.513856 C 5.218585 65.951819 9.121859 66.712567 8.190476 66.884624 C 6.491237 67.473314 10.215344 67.871462 7.968651 68.491436 C 6.582242 68.22553 5.138955 67.756284 5.730489 66.294511 C 2.61498 66.699769 -0.125132 67.99375 2.337698 71.164716 L 2.519709 71.164716 C 2.238161 69.55506 2.275132 66.728208 4.965476 67.685186 C 1.377877 68.396165 7.45248 72.141601 6.684623 69.182507 C 8.191898 69.255027 9.633763 68.295206 8.841733 69.761244 C 11.813624 69.434194 13.874041 66.85334 16.743552 67.214518 C 18.978869 66.91875 21.430324 66.698347 23.837699 65.796826 C 25.819908 65.656052 27.723909 63.51885 26.640377 62.256151 C 25.964947 62.199273 25.282408 62.173678 24.591336 62.182209 C 22.515278 62.209227 20.35959 62.510682 18.120007 62.954332 Z M 22.85086 63.579994 C 22.90205 63.779068 22.775496 64.529862 22.520966 63.949703 C 22.872189 63.026852 23.557573 62.84342 23.851918 62.934425 C 24.146263 63.02543 24.052414 63.395139 22.85086 63.579994 Z M 16.319808 64.876819 C 15.301687 64.108962 14.522454 65.32758 13.814319 65.003373 C 14.371726 64.335053 15.948677 64.126026 16.911343 64.170106 C 17.874008 64.215609 18.220966 64.515642 16.319808 64.876819 Z M 31.537599 65.225199 C 31.802084 65.314782 31.740939 65.859392 32.102117 65.757011 C 32.628241 64.822785 31.139451 64.266799 30.657408 64.345007 C 30.36875 64.391932 30.446958 64.669213 31.537599 65.225199 Z M 11.999901 66.502117 L 11.516435 66.058466 C 11.540609 65.748479 11.741105 65.634723 11.992791 65.636145 C 12.747851 65.636145 13.932341 66.659954 11.999901 66.502117 Z M 11.233466 67.697983 C 10.910681 67.453407 10.374603 67.26002 10.037599 67.342494 C 10.21961 66.668486 10.552348 66.469412 10.910681 66.522024 C 11.987103 66.679862 13.272553 69.091502 11.233466 67.697983 Z M 23.10539 67.328274 C 21.949339 67.345338 19.942956 67.743486 18.994511 68.215576 C 21.962136 69.852249 18.6959 68.812798 17.488658 68.551158 C 17.33082 70.065543 16.133532 69.411442 14.640476 69.42424 C 17.027943 69.720007 13.475893 71.862897 12.106548 71.031052 C 10.317725 71.879961 13.63373 74.001522 12.133565 74.658466 C 12.319841 75.649571 9.414782 74.302977 9.640873 76.586641 C 7.914616 75.861442 9.403406 79.301158 10.266534 78.139419 C 13.204299 78.934293 12.334061 80.743023 12.409425 82.466436 C 11.931647 83.470338 10.043287 80.104564 11.985681 80.262401 C 10.451389 77.771132 10.289286 79.365146 9.016634 80.524042 C 8.720866 80.606515 12.270073 82.172091 10.044709 82.942792 C 12.001323 83.245669 12.058201 84.956284 12.456349 86.039815 C 13.63373 87.265543 13.394841 84.688956 14.801157 86.160682 C 13.911012 84.846793 10.080258 82.46217 13.16164 83.225761 C 13.144577 81.904763 12.602811 80.839716 13.545569 80.866733 C 14.481217 79.174604 12.564418 85.043023 14.673181 82.888757 C 15.259028 82.634227 15.40549 81.196628 16.454894 83.030953 C 17.977811 84.529696 17.005192 85.611806 14.855192 84.239617 C 15.240542 85.543552 17.728968 86.009954 17.261144 88.049042 C 17.755986 89.844974 18.448479 89.18092 19.054233 89.077117 C 19.529167 90.821859 19.803605 89.536409 19.826356 88.707408 C 22.000529 89.172388 21.490046 90.463526 22.171164 91.362203 C 23.668486 92.039055 20.02543 86.77639 22.594908 89.775298 C 25.079068 92.020569 23.857606 93.060021 21.758796 92.913559 C 22.882143 93.279002 23.476521 94.917097 25.134524 94.848843 C 26.886376 95.680689 28.075132 98.881515 25.054894 97.549141 C 24.00549 96.603539 20.299868 95.444644 23.327216 97.240576 C 26.124207 98.537402 28.343882 99.312368 31.039914 100.936244 C 32.970933 102.315543 33.805622 103.891072 34.533664 104.201059 C 32.911211 104.974604 29.646396 103.579663 32.075099 103.153076 C 30.562136 102.877216 28.857209 102.110781 30.307606 103.999141 C 31.540443 105.028638 34.67586 104.917726 35.240377 105.034326 C 34.765443 106.083731 33.946396 106.167626 35.260285 106.2501 C 33.794246 107.035021 35.730953 107.157309 35.864617 107.60096 C 38.193783 106.207441 37.427348 110.855821 39.814815 107.990576 C 42.170999 106.270007 37.775728 110.119247 40.682209 108.299141 C 42.783863 106.895669 45.88373 108.961773 47.84461 109.637203 C 49.255192 109.567527 50.625959 110.857243 52.070668 110.073744 C 54.849174 109.322951 46.63168 108.961773 48.784524 107.635087 C 46.23922 108.374505 44.359392 106.752051 43.108069 105.121066 C 40.252778 104.461277 36.952414 102.996661 35.529035 100.472686 C 34.947454 99.522818 36.373678 100.612038 35.031349 99.060682 C 33.312203 97.530655 32.447652 95.793023 31.295867 93.934525 C 29.916568 93.199372 29.754464 91.029465 29.616535 93.860583 C 29.626488 92.076026 27.955688 90.875894 27.546164 91.375001 C 27.540476 89.654432 29.340675 90.51756 28.077976 89.244908 C 27.806382 87.463195 26.907705 85.60754 26.640377 83.594048 C 26.223744 82.624273 26.580655 80.546793 25.215576 82.740874 C 24.716468 85.062931 25.053472 79.885583 25.827017 81.591932 C 26.801058 79.921132 25.572487 80.047686 25.423181 80.273777 C 26.067328 78.806317 25.822751 76.758698 25.235483 77.547884 C 25.586707 75.992262 25.795734 71.815973 24.712203 72.555391 C 25.286673 71.132011 25.808532 66.502117 24.019709 66.851918 C 23.763757 66.901687 23.462302 67.050993 23.10539 67.328274 Z M 25.410384 80.302216 C 25.413228 80.292262 25.417494 80.283731 25.423181 80.273777 C 25.418916 80.283731 25.41465 80.292262 25.410384 80.302216 Z M 129.91432 69.115675 C 131.189816 69.346032 131.85387 69.631846 131.909326 69.96885 C 132.0501 70.962798 132.345867 72.397553 132.789518 74.27596 C 132.840709 74.506317 132.590444 74.692593 132.04299 74.833367 C 131.458566 74.957077 131.070371 74.85754 130.874141 74.5376 C 129.474935 72.24967 127.700332 71.110682 125.553176 71.110682 C 123.124472 71.110682 121.911542 71.891337 121.911542 73.449802 C 121.911542 74.32004 122.242858 75.00258 122.899802 75.518751 C 123.484227 75.962401 124.853572 76.656317 127.017792 77.594809 C 129.288658 78.56885 130.831482 79.450464 131.647686 80.228274 C 132.702779 81.250662 133.233169 82.60721 133.233169 84.306449 C 133.233169 86.184855 132.513658 87.673645 131.068949 88.78135 C 129.62424 89.889055 127.650563 90.447884 125.150762 90.447884 C 123.485649 90.447884 121.816271 90.264452 120.151158 89.910384 C 118.716403 89.590444 117.883136 89.301786 117.651357 89.037302 C 117.510583 88.789882 117.436641 87.569842 117.436641 85.388559 C 117.436641 84.450067 117.648513 83.965179 118.0751 83.931052 C 118.501687 83.87844 118.867131 84.110219 119.170007 84.622124 C 120.498116 86.944181 122.645272 88.103076 125.60721 88.103076 C 128.108433 88.103076 129.35549 87.232838 129.35549 85.496628 C 129.35549 84.733036 129.071099 84.097421 128.502316 83.581251 C 127.883764 82.996826 126.676522 82.312864 124.887699 81.53221 C 122.301158 80.379002 120.574902 79.369412 119.707507 78.502018 C 118.769015 77.580589 118.296925 76.337798 118.296925 74.779333 C 118.296925 72.863956 119.027812 71.37801 120.50096 70.311542 C 121.866039 69.283466 123.691833 68.772983 125.976919 68.772983 C 127.411674 68.772983 128.726985 68.888162 129.91432 69.115675 Z M 109.193552 74.014319 L 109.085484 84.971925 C 109.06842 86.125133 109.558996 86.698182 110.5501 86.698182 C 110.74633 86.698182 111.114617 86.654101 111.666337 86.564518 C 112.216634 86.474934 112.530887 86.429432 112.619048 86.429432 C 113.139485 86.433698 113.399703 86.780655 113.399703 87.471727 C 113.399703 87.842858 112.718585 88.404531 111.36346 89.158169 C 110.008334 89.911806 108.920537 90.287203 108.104333 90.287203 C 107.413261 90.287203 106.800398 89.953043 106.270007 89.279035 C 105.736773 88.605027 105.368486 88.263757 105.155193 88.263757 C 104.997355 88.263757 104.152712 88.633466 102.628374 89.358665 C 101.105457 90.085285 99.568321 90.447884 98.026919 90.447884 C 96.570834 90.447884 95.357904 90.021297 94.385285 89.170966 C 93.321661 88.232474 92.792692 86.955556 92.792692 85.341634 C 92.792692 82.275893 96.29924 80.081813 103.320867 78.75086 C 104.525265 78.520503 105.138129 78.028506 105.155193 77.286244 L 105.202117 75.585583 C 105.308764 72.679101 104.029002 71.218751 101.352878 71.218751 C 100.589286 71.218751 99.862666 71.902712 99.181548 73.267792 C 98.500431 74.634293 97.522124 75.372289 96.246628 75.478936 C 94.790543 75.61971 94.062501 75.006846 94.062501 73.64461 C 94.062501 72.79428 95.143189 71.803175 97.307408 70.668453 C 99.578275 69.481118 101.75387 68.881052 103.84557 68.881052 C 107.443122 68.881052 109.227679 70.590245 109.193552 74.014319 Z M 24.140576 70.459425 C 23.456614 72.340675 23.941501 73.39719 24.416435 70.868949 C 25.299471 68.883896 24.225893 74.796396 23.152315 73.087203 C 22.664583 72.226919 23.372718 69.82381 23.824901 69.69299 C 23.975628 69.650331 24.099339 69.855093 24.140576 70.459425 Z M 9.177315 72.777216 C 8.67252 73.111376 9.88545 73.492461 9.916733 73.402878 C 11.276124 73.309028 12.04256 71.902712 9.655093 71.985186 C 9.191534 71.936839 8.891501 71.92262 8.720866 71.931151 C 7.523578 71.985186 12.452083 73.192428 9.177315 72.777216 Z M 15.284623 73.482507 C 15.982804 74.039915 17.310913 74.411046 16.137798 74.645669 C 17.979233 76.269544 15.687037 75.087897 15.015873 74.423843 C 15.270404 74.049868 14.9334 73.210913 14.734325 72.764419 C 14.535251 72.317924 14.475529 72.266733 15.284623 73.482507 Z M 6.99461 73.72424 C 8.045437 73.081515 7.489451 72.802811 6.947685 72.824141 C 6.405919 72.84547 5.878373 73.165411 6.99461 73.72424 Z M 22.205291 74.625761 C 22.165476 74.384028 22.183962 74.339948 22.219511 74.389716 C 22.323314 74.539022 22.610549 75.53297 22.205291 74.625761 Z M 15.654332 75.995106 C 15.256184 75.551456 14.398743 75.754796 14.083069 75.296925 C 15.331548 75.028175 19.260417 77.488162 15.654332 75.995106 Z M 15.111144 77.13836 C 14.612037 77.00754 14.014815 76.959194 13.767394 76.398942 C 13.37209 75.855755 13.340807 75.61971 13.518552 75.579895 C 14.286409 75.404994 18.978869 78.921495 15.111144 77.13836 Z M 7.061442 76.479994 L 7.377116 76.60086 C 8.154927 76.293717 7.448214 75.978043 6.859524 75.88135 C 6.272255 75.786079 5.804431 75.906945 7.061442 76.479994 Z M 13.652216 77.897686 L 13.121825 77.353076 C 12.3042 76.625034 12.153472 76.360549 12.328373 76.352018 C 12.857341 76.325001 16.33545 78.632838 13.652216 77.897686 Z M 12.685284 77.621826 C 14.673181 77.985847 13.665013 80.879531 12.443552 79.066535 C 11.318783 77.948876 10.505423 76.919379 12.496164 78.374042 C 13.072057 78.396793 11.827844 77.065841 11.965774 77.070106 C 12.012698 77.071528 12.211773 77.2251 12.685284 77.621826 Z M 20.437798 79.939617 C 20.388029 79.329597 20.392295 79.04805 20.41789 78.965576 C 20.494676 78.716733 20.771958 80.241072 20.437798 79.939617 Z M 22.594908 80.329233 C 23.971363 79.885583 22.52381 82.136542 23.549041 82.116634 C 23.391204 83.540014 22.924802 84.057606 22.488261 82.802018 C 21.42748 82.164981 21.748843 79.121991 22.178274 79.120569 C 22.321892 79.119147 22.475463 79.453307 22.594908 80.329233 Z M 24.81174 80.99471 L 24.81174 80.637798 C 24.879994 79.389319 25.064848 79.016766 25.141634 79.187401 C 25.218419 79.358036 25.184292 80.070437 24.81174 80.99471 Z M 5.320966 80.625001 C 5.761773 81.409921 5.71627 82.894445 6.664716 83.225761 C 6.873743 82.361211 5.32381 79.22295 5.052216 79.28836 C 4.96121 79.30969 5.015245 79.68793 5.320966 80.625001 Z M 17.448843 81.001819 C 15.962897 78.197719 19.227712 81.911872 19.564716 82.614319 C 19.719709 83.308235 18.647553 82.420933 19.377017 84.051919 C 18.048909 82.19342 18.592097 85.072884 17.382011 83.211542 C 16.907077 82.430887 16.122156 80.140113 16.373843 79.441932 C 16.6042 80.58092 18.794015 84.344842 17.448843 81.001819 Z M 4.723743 81.465378 C 6.020569 83.450431 6.405919 86.520437 8.445007 87.807309 C 6.859524 85.547818 7.463856 84.531118 5.932407 82.688261 C 5.751819 81.806647 4.777778 80.221165 4.413757 79.986542 C 4.196197 79.845768 4.193353 80.191303 4.723743 81.465378 Z M 103.851257 80.4501 C 99.579697 81.213691 97.442494 82.60721 97.442494 84.629233 C 97.442494 86.669743 98.553043 87.686442 100.768453 87.686442 C 101.655755 87.686442 102.570074 87.520073 103.508566 87.183069 C 104.606317 86.793453 105.155193 86.321363 105.155193 85.771065 L 105.209227 81.404233 C 105.22629 80.960583 105.12391 80.671925 104.89924 80.531151 C 104.789749 80.460053 104.65182 80.415973 104.476919 80.403175 C 104.302018 80.390378 104.090146 80.406019 103.851257 80.4501 Z M 15.232011 85.812302 C 16.19752 87.424802 16.028307 88.110186 14.002017 87.094908 C 11.452447 85.849273 12.568684 87.712038 13.067791 88.223942 C 12.383829 88.378936 13.966468 88.818321 13.767394 88.828274 C 15.324438 89.176654 19.988459 92.664716 17.234127 89.070007 C 15.999868 88.705986 16.496131 86.022752 15.67424 85.765378 C 15.557639 85.728407 15.411177 85.735517 15.232011 85.812302 Z M 6.839616 87.646628 C 8.088095 90.875894 10.287864 93.638757 12.113657 96.400199 C 13.531349 99.029399 15.207837 101.773777 17.791535 103.414716 C 18.661773 104.250827 19.50215 105.532011 20.733565 105.793652 C 23.654266 106.872917 20.722189 103.743189 19.384127 103.925199 C 18.792593 102.897124 17.114683 102.241601 18.294908 101.68846 C 16.173347 102.425034 16.07381 98.891469 15.077017 99.397686 C 12.830324 98.688129 14.202513 96.174108 11.529233 94.634128 C 11.284656 93.010252 8.873016 91.596826 8.102315 89.143949 C 7.847784 88.202613 6.444312 85.945966 6.376058 86.288658 C 6.353307 86.403837 6.472751 86.807673 6.839616 87.646628 Z M 27.392593 90.11799 L 27.156548 89.735483 C 26.7584 88.842494 26.765509 88.434392 26.902017 88.364716 C 27.129531 88.248116 27.716799 89.062897 27.392593 90.11799 Z M 17.549802 92.302117 C 15.361409 91.187302 17.030787 92.718751 16.366733 92.558069 C 14.131415 91.94805 18.357474 94.260153 16.011243 93.685682 C 17.293849 94.70096 19.465179 96.294974 16.554431 94.767792 C 16.169081 95.315245 18.637599 96.148513 19.241931 96.56799 C 20.267163 97.331581 23.098281 98.729366 20.70086 96.858069 C 21.508532 95.918155 19.15377 95.42047 19.934425 94.794809 C 17.946528 93.577613 18.366005 93.681416 19.759524 93.719809 C 17.369213 92.650497 20.102216 92.734392 19.97424 92.18836 C 19.513525 92.097355 18.370271 91.687831 17.609524 91.522884 C 16.850199 91.357937 16.471958 91.431879 17.549802 92.302117 Z M 32.713558 97.979994 C 33.2084 98.179068 34.291931 100.838129 32.868552 99.141734 C 32.200232 98.44213 31.903043 97.281813 32.203076 97.38846 C 32.302613 97.424009 32.473248 97.600331 32.713558 97.979994 Z M 19.786541 100.364617 L 20.378076 100.492593 C 21.781548 101.569015 26.037467 100.627679 22.528076 99.847025 C 21.727513 99.420437 20.43211 99.063526 19.638658 99.054994 C 18.846627 99.046462 18.560814 99.390576 19.786541 100.364617 Z M 24.81174 100.33049 C 24.983796 100.757077 25.517031 100.745702 25.846925 100.949042 C 27.704002 101.42682 27.696892 100.658962 26.014716 100.431449 C 25.450199 99.906747 24.123512 99.362137 23.832011 99.424703 C 23.655688 99.461674 23.854762 99.719048 24.81174 100.33049 Z M 26.418552 99.874042 C 27.509193 100.843817 31.425265 100.586443 27.742394 99.994908 C 27.467957 99.592494 26.59914 99.441767 26.06875 99.450298 C 25.53836 99.460252 25.346396 99.628043 26.418552 99.874042 Z M 26.653175 102.097984 L 27.197785 102.272884 C 29.067659 102.513195 26.466898 101.439617 26.06875 101.526357 C 25.936508 101.556218 26.048843 101.718321 26.653175 102.097984 Z M 38.781052 102.507507 C 38.698578 102.29848 38.580556 102.193255 38.465377 102.152018 C 38.116998 102.02973 37.812699 102.491866 38.781052 102.507507 Z M 26.324703 103.730391 L 26.774041 103.939419 L 27.170767 104.09299 C 29.745933 104.821033 26.838029 103.232706 26.081548 103.160186 C 25.829861 103.136013 25.81422 103.278208 26.324703 103.730391 Z M 33.117394 107.527018 C 35.55463 107.549769 32.686541 107.289551 32.33674 107.345007 C 32.221561 107.363493 32.383664 107.414683 33.117394 107.527018 Z M 28.75625 110.153374 C 31.160781 111.519875 26.108565 109.452349 25.397586 108.883566 C 23.38125 107.755953 23.123876 107.990576 25.195668 109.139518 C 25.615146 109.379829 26.028935 109.638625 26.465476 109.844809 C 29.478605 111.148744 32.427745 112.519511 35.730953 112.936145 C 40.969445 113.664187 46.379994 114.787534 51.639815 113.762302 C 49.259458 112.688724 46.798049 114.183202 44.424802 112.995867 C 41.579465 113.608731 38.532209 112.843718 35.642791 112.465477 C 32.353803 110.999439 28.804597 109.994115 25.726058 108.091535 C 25.245437 107.915212 24.918386 107.814253 24.712203 107.768751 C 23.266072 107.445966 27.847619 109.928705 28.75625 110.153374 Z M 42.274802 109.48221 C 41.785648 109.756648 41.570933 110.909855 42.475298 110.187501 C 43.456449 109.237633 42.512269 111.700464 44.094908 109.952878 C 44.103439 109.328638 44.09633 108.833797 43.860285 108.68307 C 43.62424 108.53092 43.160682 108.722884 42.274802 109.48221 Z M 54.321627 110.0126 L 54.731151 110.079432 L 55.396627 110.120669 C 56.936608 109.807838 60.445999 110.904167 61.01336 109.711145 C 60.077712 109.688394 58.460946 109.361343 57.048942 109.240477 C 55.636938 109.118189 54.429696 109.200662 54.321627 110.0126 Z M 67.759127 110.147686 C 69.437038 110.153374 72.849736 109.62014 69.196727 109.622984 C 68.622256 109.712567 65.852282 109.699769 67.759127 110.147686 Z M 46.453936 110.926919 L 46.755391 110.83307 C 47.584392 110.296992 47.484855 110.066634 47.191932 110.100761 C 46.90043 110.133466 46.412699 110.424968 46.453936 110.926919 Z M 45.270867 111.128837 C 45.735847 110.636839 45.855291 110.397951 45.801257 110.315477 C 45.640576 110.065212 43.918585 111.215576 45.270867 111.128837 Z M 33.60086 111.222686 C 34.798148 111.974902 40.582672 112.883533 36.959524 111.538361 C 36.503076 111.633632 32.949603 110.6084 32.619709 110.690874 C 32.510218 110.719313 32.760483 110.867197 33.60086 111.222686 Z M 48.966535 111.839816 L 49.410186 111.551158 C 49.940576 111.16723 50.129696 110.95678 50.122586 110.865775 C 50.098413 110.595603 48.336607 111.404697 48.966535 111.839816 Z M 48.966535 111.839816 " transform="matrix(2.747093,0,0,2.747093,13.75,13.75)"/>
<path style=" stroke:none;fill-rule:nonzero;fill:rgb(0%,0%,0%);fill-opacity:1;" d="M 38.410156 151.992188 C 34.484375 152.324219 31.058594 155.476562 35.953125 160.761719 C 45.355469 166.070312 26.679688 169.980469 32.132812 173.53125 C 33.871094 177.273438 31.992188 181.445312 26.910156 182.113281 C 19.464844 182.757812 20.167969 192.925781 27.425781 187.597656 C 35.523438 185.027344 28.828125 188.613281 25.007812 189.351562 C 16.4375 191.84375 10.597656 200.40625 15.578125 208.230469 C 20.339844 219.003906 21.609375 231.023438 25.304688 242.230469 C 31.417969 259.464844 40.351562 275.867188 51.957031 290.035156 C 57.464844 298.066406 65.519531 303.773438 73.089844 309.726562 C 80.535156 314.554688 88.828125 319.386719 97.304688 321.851562 C 112.359375 327.363281 128.515625 327.878906 144.332031 329.125 C 153.972656 329.105469 163.648438 328.425781 173.164062 326.726562 C 181.726562 327.652344 187.886719 320.332031 195.625 324.195312 C 200.3125 320.039062 207.144531 321.851562 211.832031 318.828125 C 215.300781 307.03125 199.921875 316.488281 195.054688 310.722656 C 189.761719 316.941406 185.320312 310.042969 178.902344 311.980469 C 167.980469 312.527344 179.730469 307.085938 179.457031 302.085938 C 173.664062 297.644531 167.121094 308.183594 163.417969 311.019531 C 154.269531 309.363281 145.214844 306.765625 136.820312 302.804688 C 127.257812 297.824219 117.871094 291.902344 110.945312 283.5 C 103.695312 274.917969 95.683594 266.242188 92.375 255.222656 C 85.382812 237.03125 85.839844 217.335938 84.054688 198.226562 C 84.714844 185.289062 98.375 199.621094 104.28125 194.941406 C 102.257812 188.234375 91.484375 186.109375 85.53125 183.425781 C 79.785156 183.027344 77.691406 177.878906 71.574219 177.464844 C 71.867188 170.28125 60.339844 174.234375 56.144531 169.121094 C 60.277344 158.460938 42.464844 169.375 43.851562 160.152344 C 46.753906 154.15625 42.332031 151.664062 38.410156 151.992188 Z M 38.464844 152.898438 C 39.394531 152.664062 40.464844 152.851562 41.546875 153.710938 C 46.667969 160.609375 32.125 152.917969 37.171875 159.503906 C 34.101562 158.066406 35.667969 153.59375 38.464844 152.898438 Z M 409.835938 156.3125 C 409.203125 156.3125 407.546875 157.175781 404.871094 158.933594 C 401.566406 161.070312 398.074219 162.753906 394.425781 163.972656 C 392.140625 164.757812 391.011719 165.847656 391.011719 167.257812 C 391.011719 168.230469 391.804688 168.988281 393.410156 169.527344 C 396.824219 170.652344 399.0625 172.203125 400.128906 174.195312 C 400.914062 175.757812 401.3125 178.523438 401.3125 182.519531 L 401.3125 246.363281 C 401.3125 251.957031 399.960938 255.097656 397.289062 255.777344 C 394.308594 256.550781 392.820312 257.699219 392.820312 259.210938 C 392.820312 259.84375 392.875 260.347656 392.96875 260.6875 C 393.203125 261.660156 394.792969 262.019531 397.710938 261.777344 C 409.308594 260.847656 417.539062 260.621094 422.40625 261.054688 C 423.964844 261.207031 424.917969 261.136719 425.285156 260.871094 C 425.65625 260.605469 425.839844 259.910156 425.839844 258.785156 C 425.839844 257.367188 424.695312 256.511719 422.40625 256.21875 C 418.703125 255.832031 416.339844 255.292969 415.320312 254.613281 C 413.863281 253.640625 413.070312 251.605469 412.976562 248.488281 C 412.882812 245.367188 412.847656 242.980469 412.847656 241.324219 C 412.847656 238.992188 413.992188 237.183594 416.28125 235.917969 C 418.320312 234.453125 419.75 233.722656 420.578125 233.722656 C 421.261719 233.722656 421.824219 234.128906 422.257812 234.902344 C 427.617188 243.964844 434.148438 252.628906 441.84375 260.90625 C 443.003906 262.128906 444.960938 262.460938 447.691406 261.921875 C 453.203125 261.488281 457.644531 261.25 461.054688 261.203125 C 463.34375 261.109375 464.488281 260.191406 464.488281 258.492188 C 464.488281 257.128906 464.214844 256.292969 463.675781 255.980469 C 463.136719 255.667969 461.765625 255.5 459.523438 255.5 C 456.507812 255.5 453.257812 254.019531 449.796875 251.050781 C 444.390625 246.335938 438.644531 239.335938 432.558594 230.085938 C 430.90625 227.503906 430.085938 225.875 430.085938 225.195312 C 430.085938 224.757812 430.269531 224.398438 430.65625 224.105469 C 435.910156 218.851562 440.867188 215.164062 445.496094 213.066406 C 448.8125 211.507812 452.339844 210.644531 456.089844 210.503906 C 458.480469 210.359375 459.671875 209.460938 459.671875 207.808594 C 459.671875 206.050781 458.914062 205.140625 457.402344 205.09375 C 452.78125 205.09375 448.125 205.066406 443.449219 205.019531 C 436.730469 204.972656 431.617188 204.71875 428.109375 204.226562 C 426.550781 203.980469 425.6875 204.722656 425.542969 206.421875 C 425.449219 208.125 426.261719 209.066406 427.960938 209.265625 C 431.902344 209.804688 433.867188 210.71875 433.867188 212.035156 C 433.867188 212.761719 433.289062 213.75 432.117188 214.96875 C 426.21875 220.082031 421.265625 224.207031 417.222656 227.371094 C 415.707031 228.636719 414.589844 229.273438 413.863281 229.273438 C 413.179688 229.273438 412.828125 228.636719 412.828125 227.371094 L 412.699219 181.652344 C 412.699219 175.664062 412.726562 170.882812 412.773438 167.332031 C 412.820312 162.171875 412.847656 159.753906 412.847656 160.097656 C 412.847656 157.5625 411.832031 156.3125 409.839844 156.3125 Z M 243.078125 156.828125 C 242.304688 156.828125 240.441406 157.691406 237.523438 159.449219 C 233.96875 161.6875 230.53125 163.347656 227.222656 164.414062 C 225.03125 165.140625 223.9375 166.253906 223.9375 167.71875 C 223.9375 168.691406 224.695312 169.433594 226.207031 169.96875 C 229.082031 170.992188 231.082031 172.4375 232.226562 174.289062 C 233.371094 176.140625 233.960938 179.042969 233.960938 182.984375 L 233.960938 249.078125 C 233.960938 253.066406 232.628906 255.472656 229.972656 256.277344 C 227.320312 257.078125 226.003906 258.058594 226.003906 259.230469 C 226.003906 260.542969 226.226562 261.351562 226.6875 261.644531 C 227.152344 261.929688 228.386719 261.972656 230.378906 261.777344 C 240.320312 260.945312 248.632812 260.867188 255.351562 261.5 C 257.542969 261.734375 258.636719 260.878906 258.636719 258.933594 C 258.636719 257.523438 257.554688 256.695312 255.351562 256.460938 C 251.800781 256.023438 249.285156 255.125 247.820312 253.785156 C 246.355469 252.441406 245.625 250.292969 245.625 247.324219 L 245.347656 182.097656 C 245.292969 177.429688 245.335938 172.667969 245.476562 167.847656 C 245.675781 162.78125 245.773438 160.339844 245.773438 160.539062 C 245.773438 158.054688 244.882812 156.828125 243.078125 156.828125 Z M 145.9375 164.507812 C 145.402344 164.601562 145.023438 165.113281 144.777344 166.039062 C 144.292969 167.550781 145.027344 168.742188 146.972656 169.621094 C 150.082031 171.039062 152.214844 172.617188 153.359375 174.34375 C 154.503906 176.074219 155.074219 178.550781 155.074219 181.765625 L 155.074219 244.296875 C 155.074219 252.140625 152.6875 256.328125 147.914062 256.867188 C 145.824219 257.0625 144.777344 257.777344 144.777344 259.042969 C 144.777344 261.046875 145.816406 261.902344 147.914062 261.609375 C 155.40625 260.589844 164.929688 260.554688 176.46875 261.480469 C 180.457031 261.820312 182.597656 261.1875 182.890625 259.578125 C 183.183594 257.738281 182.132812 256.6875 179.753906 256.441406 C 175.085938 255.855469 172.042969 255.195312 170.636719 254.464844 C 168.828125 253.585938 167.921875 251.921875 167.921875 249.484375 L 167.921875 216.628906 C 167.921875 216.007812 168.351562 215.671875 169.230469 215.671875 C 176.972656 215.671875 182.578125 215.882812 186.007812 216.296875 C 189.441406 216.714844 191.792969 219.976562 193.058594 226.0625 C 193.410156 227.667969 194.246094 228.382812 195.605469 228.238281 C 197.261719 228.144531 198.074219 227.476562 198.023438 226.207031 C 197.535156 215.597656 197.976562 206.976562 199.335938 200.351562 C 199.582031 199.179688 198.867188 198.421875 197.214844 198.082031 C 195.265625 197.644531 194.136719 198.402344 193.796875 200.351562 C 193.257812 203.914062 192.714844 206.109375 192.15625 206.957031 C 191.597656 207.808594 190.496094 208.328125 188.890625 208.527344 C 180.65625 209.066406 174.382812 209.367188 170.042969 209.414062 C 168.636719 209.460938 167.941406 208.933594 167.941406 207.808594 L 167.941406 174.714844 C 167.941406 173.589844 168.167969 172.859375 168.660156 172.515625 C 169.445312 171.980469 171.109375 171.722656 173.644531 171.722656 C 184.699219 171.722656 191.59375 171.933594 194.371094 172.371094 C 196.949219 172.710938 199.03125 173.722656 200.589844 175.378906 C 201.914062 176.785156 203.296875 179.261719 204.761719 182.816406 C 205.289062 184.128906 206.242188 184.792969 207.605469 184.792969 C 208.964844 184.792969 209.632812 184.03125 209.632812 182.519531 C 209.824219 174.828125 210.335938 169.355469 211.167969 166.09375 C 211.214844 165.894531 211.238281 165.710938 211.257812 165.46875 C 211.257812 164.738281 209.628906 164.457031 206.367188 164.65625 C 196.578125 165.242188 184.957031 165.539062 171.519531 165.539062 C 160.125 165.539062 152.886719 165.292969 149.816406 164.800781 C 147.71875 164.460938 146.429688 164.367188 145.9375 164.507812 Z M 49.574219 166.242188 C 50.878906 166.519531 51.328125 167.296875 47.746094 167.773438 L 46.308594 167.699219 C 46.121094 166.191406 48.269531 165.964844 49.574219 166.242188 Z M 48.136719 171.28125 C 50.726562 172.414062 56.03125 172.941406 56.902344 175.785156 C 51.601562 173.023438 57.957031 179.109375 53.507812 178.996094 C 51.105469 179.023438 46.660156 173.871094 48.136719 171.28125 Z M 46.804688 175.5625 C 52.808594 180.128906 43.460938 175.558594 39.664062 178.421875 C 33.683594 179.027344 46.21875 175.050781 46.804688 175.5625 Z M 62.660156 178.292969 C 63.425781 178.503906 63.425781 179.230469 62.164062 180.75 C 66.8125 186.304688 63.207031 184.429688 60.039062 180.492188 C 62.820312 182.410156 60.675781 190.691406 56.402344 184.996094 C 53.378906 179.363281 51.464844 183.167969 54.667969 187.023438 C 51.523438 181.097656 42.414062 183.628906 35.75 185.898438 C 31.449219 185.425781 46.925781 182.226562 48.597656 181.46875 C 51.183594 181.519531 60.363281 177.660156 62.660156 178.292969 Z M 81.304688 184.570312 C 83.203125 184.546875 85.078125 184.617188 86.933594 184.773438 C 89.910156 188.242188 84.679688 194.113281 79.234375 194.5 C 72.621094 196.976562 65.886719 197.582031 59.746094 198.394531 C 51.863281 197.402344 46.203125 204.492188 38.039062 205.390625 C 40.214844 201.363281 36.253906 204 32.113281 203.800781 C 34.222656 211.929688 17.535156 201.640625 27.390625 199.6875 C 20 197.058594 19.894531 204.824219 20.671875 209.246094 L 20.171875 209.246094 C 13.40625 200.535156 20.933594 196.980469 29.492188 195.867188 C 27.867188 199.882812 31.832031 201.171875 35.640625 201.902344 C 41.8125 200.199219 31.582031 199.105469 36.25 197.488281 C 38.808594 197.015625 28.085938 194.925781 37.023438 193.722656 C 46.191406 192.183594 54.4375 188.582031 63.527344 186.691406 C 69.679688 185.472656 75.601562 184.644531 81.300781 184.570312 Z M 79.273438 186.636719 C 78.464844 186.386719 76.582031 186.890625 75.617188 189.425781 C 76.316406 191.019531 76.664062 188.957031 76.523438 188.410156 C 79.824219 187.902344 80.082031 186.886719 79.273438 186.636719 Z M 60.207031 190.03125 C 57.5625 189.910156 53.230469 190.484375 51.699219 192.320312 C 53.644531 193.210938 55.785156 189.863281 58.582031 191.972656 C 63.804688 190.980469 62.851562 190.15625 60.207031 190.03125 Z M 97.96875 190.511719 C 99.292969 190.296875 103.382812 191.824219 101.9375 194.390625 C 100.945312 194.671875 101.113281 193.175781 100.386719 192.929688 C 97.390625 191.402344 97.175781 190.640625 97.96875 190.511719 Z M 46.695312 194.058594 C 46.003906 194.054688 45.453125 194.367188 45.386719 195.21875 L 46.714844 196.4375 C 52.023438 196.871094 48.769531 194.058594 46.695312 194.058594 Z M 43.722656 196.492188 C 42.738281 196.347656 41.824219 196.894531 41.324219 198.746094 C 42.25 198.519531 43.722656 199.050781 44.609375 199.722656 C 50.210938 203.550781 46.679688 196.925781 43.722656 196.492188 Z M 79.734375 197.398438 C 84.648438 196.4375 83.214844 209.15625 81.636719 213.066406 C 84.613281 211.035156 84.039062 222.507812 83.074219 226.78125 C 84.699219 224.597656 85.367188 230.3125 83.554688 234.347656 C 83.707031 233.6875 87.488281 233.109375 84.699219 237.890625 C 82.574219 233.203125 81.648438 247.425781 83.019531 241.046875 C 86.769531 235.019531 85.789062 240.726562 86.933594 243.390625 C 87.667969 248.921875 90.136719 254.019531 90.882812 258.914062 C 94.351562 262.410156 89.40625 260.039062 89.421875 264.765625 C 90.546875 263.394531 95.136719 266.691406 95.109375 271.59375 C 95.488281 263.816406 95.933594 269.777344 99.722656 271.796875 C 102.886719 276.902344 105.261719 281.675781 109.984375 285.878906 C 113.671875 290.140625 109.753906 287.148438 111.351562 289.757812 C 115.261719 296.691406 124.328125 300.714844 132.171875 302.527344 C 135.609375 307.007812 140.773438 311.464844 147.765625 309.433594 C 141.851562 313.078125 164.425781 314.070312 156.792969 316.132812 C 152.824219 318.285156 149.058594 314.742188 145.183594 314.933594 C 139.796875 313.078125 131.28125 307.402344 125.507812 311.257812 C 117.523438 316.257812 129.601562 305.683594 123.125 310.410156 C 116.566406 318.28125 118.671875 305.511719 112.273438 309.339844 C 111.90625 308.121094 106.585938 307.785156 110.613281 305.628906 C 107.003906 305.402344 109.253906 305.171875 110.558594 302.289062 C 109.007812 301.96875 100.394531 302.273438 97.007812 299.445312 C 93.023438 294.257812 97.707031 296.363281 101.863281 297.121094 C 95.191406 298.292969 104.160156 302.125 108.617188 300 C 106.617188 299.148438 104.324219 294.820312 99.019531 291.03125 C 91.613281 286.570312 85.515625 284.441406 77.832031 280.878906 C 69.515625 275.945312 79.695312 279.128906 82.578125 281.726562 C 90.875 285.386719 87.609375 276.59375 82.796875 274.308594 C 77.523438 274.523438 76.167969 268.46875 71.945312 268.808594 C 78.617188 269.875 83.25 267.082031 75.820312 260.371094 C 68.761719 252.132812 78.769531 266.589844 74.660156 264.730469 C 72.789062 262.261719 74.1875 258.714844 68.214844 257.4375 C 68.152344 259.714844 67.398438 263.246094 66.09375 258.453125 C 64.429688 258.738281 62.527344 260.5625 61.167969 255.628906 C 62.453125 250.027344 55.617188 248.746094 54.558594 245.164062 C 60.464844 248.933594 63.136719 245.960938 58.953125 241.84375 C 56.070312 236.804688 55.667969 240.753906 54.058594 241.453125 C 48.265625 247.371094 53.53125 231.25 50.960938 235.898438 C 48.371094 235.824219 49.859375 238.75 49.90625 242.378906 C 41.441406 240.28125 51.964844 246.832031 54.410156 250.441406 C 50.546875 246.398438 51.203125 253.476562 47.96875 250.109375 C 46.875 247.132812 46.71875 242.433594 41.34375 241.601562 C 47.457031 239.484375 37.707031 235.183594 38.519531 234.957031 C 42.015625 231.773438 42.460938 227.394531 46.675781 234.238281 C 41.339844 233.804688 46.527344 243.050781 47.839844 240.292969 C 47.632812 235.558594 50.023438 230.589844 41.953125 228.40625 C 39.582031 231.597656 35.492188 222.148438 40.234375 224.140625 C 39.613281 217.867188 47.59375 221.566406 47.082031 218.84375 C 51.203125 217.039062 42.09375 211.210938 47.007812 208.878906 C 50.769531 211.164062 60.527344 205.277344 53.96875 204.464844 C 58.070312 204.429688 61.359375 206.226562 61.792969 202.066406 C 65.109375 202.785156 74.082031 205.640625 65.929688 201.144531 C 68.535156 199.847656 74.046875 198.753906 77.222656 198.707031 C 78.203125 197.945312 79.03125 197.535156 79.734375 197.398438 Z M 359.820312 202.675781 C 353.542969 202.675781 348.527344 204.078125 344.777344 206.902344 C 340.730469 209.832031 338.722656 213.914062 338.722656 219.175781 C 338.722656 223.457031 340.019531 226.871094 342.597656 229.402344 C 344.980469 231.785156 349.722656 234.558594 356.828125 237.726562 C 361.742188 239.871094 365.058594 241.75 366.757812 243.355469 C 368.320312 244.773438 369.101562 246.519531 369.101562 248.617188 C 369.101562 253.386719 365.675781 255.777344 358.804688 255.777344 C 350.667969 255.777344 344.769531 252.59375 341.121094 246.214844 C 340.289062 244.808594 339.285156 244.171875 338.113281 244.316406 C 336.941406 244.410156 336.359375 245.742188 336.359375 248.320312 C 336.359375 254.3125 336.5625 257.664062 336.949219 258.34375 C 337.585938 259.070312 339.875 259.863281 343.816406 260.742188 C 348.390625 261.714844 352.976562 262.21875 357.550781 262.21875 C 364.417969 262.21875 369.839844 260.683594 373.808594 257.640625 C 377.777344 254.597656 379.753906 250.507812 379.753906 245.347656 C 379.753906 240.679688 378.296875 236.953125 375.398438 234.144531 C 373.15625 232.007812 368.917969 229.585938 362.679688 226.910156 C 356.734375 224.332031 352.972656 222.425781 351.367188 221.207031 C 349.5625 219.789062 348.652344 217.914062 348.652344 215.523438 C 348.652344 211.242188 351.984375 209.097656 358.65625 209.097656 C 364.554688 209.097656 369.429688 212.226562 373.273438 218.511719 C 373.8125 219.390625 374.878906 219.664062 376.484375 219.324219 C 377.988281 218.9375 378.675781 218.425781 378.535156 217.792969 C 377.316406 212.632812 376.503906 208.691406 376.117188 205.960938 C 375.964844 205.035156 374.140625 204.25 370.636719 203.617188 C 367.375 202.992188 363.761719 202.675781 359.820312 202.675781 Z M 299.023438 202.972656 C 293.277344 202.972656 287.300781 204.621094 281.0625 207.882812 C 275.117188 211 272.148438 213.722656 272.148438 216.058594 C 272.148438 219.800781 274.148438 221.484375 278.148438 221.097656 C 281.652344 220.804688 284.339844 218.777344 286.210938 215.023438 C 288.082031 211.273438 290.078125 209.394531 292.175781 209.394531 C 299.527344 209.394531 303.042969 213.40625 302.75 221.390625 L 302.621094 226.0625 C 302.574219 228.101562 300.890625 229.453125 297.582031 230.085938 C 278.292969 233.742188 268.660156 239.769531 268.660156 248.191406 C 268.660156 252.625 270.113281 256.132812 273.035156 258.710938 C 275.707031 261.046875 279.039062 262.21875 283.039062 262.21875 C 287.273438 262.21875 291.496094 261.222656 295.679688 259.230469 C 299.867188 257.234375 302.1875 256.21875 302.621094 256.21875 C 303.207031 256.21875 304.21875 257.15625 305.683594 259.007812 C 307.140625 260.859375 308.824219 261.777344 310.722656 261.777344 C 312.964844 261.777344 315.953125 260.746094 319.675781 258.675781 C 323.398438 256.605469 325.269531 255.0625 325.269531 254.042969 C 325.269531 252.144531 324.554688 251.191406 323.125 251.179688 C 322.882812 251.179688 322.019531 251.304688 320.507812 251.550781 C 318.992188 251.796875 317.980469 251.917969 317.441406 251.917969 C 314.71875 251.917969 313.371094 250.34375 313.417969 247.175781 L 313.714844 217.074219 C 313.808594 207.671875 308.90625 202.972656 299.023438 202.972656 Z M 79.199219 205.203125 C 77.957031 205.5625 76.011719 212.164062 77.351562 214.527344 C 80.300781 219.222656 83.25 202.980469 80.824219 208.433594 C 79.519531 215.378906 78.1875 212.476562 80.066406 207.308594 C 79.953125 205.648438 79.613281 205.085938 79.199219 205.203125 Z M 37.707031 211.351562 C 38.175781 211.328125 39 211.367188 40.273438 211.5 C 46.832031 211.273438 44.726562 215.136719 40.992188 215.394531 C 40.90625 215.640625 37.574219 214.59375 38.960938 213.675781 C 47.957031 214.816406 34.417969 211.5 37.707031 211.351562 Z M 54.226562 213.640625 C 54.773438 214.867188 55.699219 217.171875 55 218.199219 C 56.84375 220.023438 63.140625 223.269531 58.082031 218.808594 C 61.304688 218.164062 57.65625 217.144531 55.738281 215.613281 C 53.515625 212.273438 53.679688 212.414062 54.226562 213.640625 Z M 32.835938 213.804688 C 34.324219 213.746094 35.851562 214.511719 32.964844 216.277344 C 29.898438 214.742188 31.347656 213.863281 32.835938 213.804688 Z M 74.789062 218.105469 C 74.691406 217.96875 74.640625 218.089844 74.75 218.753906 C 75.863281 221.246094 75.074219 218.515625 74.789062 218.105469 Z M 52.4375 220.597656 C 53.304688 221.855469 55.660156 221.296875 56.753906 222.515625 C 66.660156 226.617188 55.867188 219.859375 52.4375 220.597656 Z M 50.886719 221.375 C 50.398438 221.484375 50.484375 222.132812 51.570312 223.625 C 52.25 225.164062 53.890625 225.296875 55.261719 225.65625 C 65.886719 230.554688 52.996094 220.894531 50.886719 221.375 Z M 32.59375 222.203125 C 34.210938 222.46875 36.152344 223.335938 34.015625 224.179688 L 33.148438 223.847656 C 29.695312 222.273438 30.980469 221.941406 32.59375 222.203125 Z M 47.617188 223.496094 C 47.136719 223.519531 47.550781 224.246094 49.796875 226.246094 L 51.253906 227.742188 C 58.625 229.761719 49.070312 223.421875 47.617188 223.496094 Z M 46.621094 225.46875 C 46.242188 225.457031 49.660156 229.113281 48.078125 229.050781 C 42.609375 225.054688 44.84375 227.882812 47.933594 230.953125 C 51.289062 235.933594 54.058594 227.984375 48.597656 226.984375 C 47.296875 225.894531 46.75 225.476562 46.621094 225.46875 Z M 69.839844 230.675781 C 69.769531 230.902344 69.757812 231.675781 69.894531 233.351562 C 70.8125 234.179688 70.050781 229.992188 69.839844 230.675781 Z M 74.675781 231.101562 C 73.496094 231.105469 72.613281 239.464844 75.527344 241.214844 C 76.726562 244.664062 78.007812 243.242188 78.441406 239.332031 C 75.625 239.386719 79.601562 233.203125 75.820312 234.421875 C 75.488281 232.015625 75.070312 231.097656 74.675781 231.101562 Z M 82.816406 231.285156 C 82.605469 230.816406 82.097656 231.839844 81.910156 235.269531 L 81.910156 236.25 C 82.933594 233.710938 83.027344 231.753906 82.816406 231.285156 Z M 27.628906 231.5625 C 28.375 231.382812 32.632812 240.003906 32.058594 242.378906 C 29.453125 241.46875 29.578125 237.390625 28.367188 235.234375 C 27.527344 232.660156 27.378906 231.621094 27.628906 231.5625 Z M 58.730469 231.984375 C 58.039062 233.902344 60.195312 240.195312 61.5 242.339844 C 64.824219 247.453125 63.332031 239.542969 66.980469 244.648438 C 64.976562 240.167969 67.921875 242.605469 67.496094 240.699219 C 66.570312 238.769531 57.601562 228.566406 61.683594 236.269531 C 65.378906 245.453125 59.363281 235.113281 58.730469 231.984375 Z M 25.875 233.480469 C 26.875 234.125 29.550781 238.480469 30.046875 240.902344 C 34.253906 245.964844 32.59375 248.757812 36.949219 254.964844 C 31.347656 251.429688 30.289062 242.996094 26.726562 237.542969 C 25.269531 234.042969 25.277344 233.09375 25.875 233.480469 Z M 300.757812 234.625 C 301.238281 234.660156 301.617188 234.78125 301.917969 234.976562 C 302.535156 235.363281 302.816406 236.15625 302.769531 237.375 L 302.621094 249.371094 C 302.621094 250.882812 301.113281 252.179688 298.097656 253.25 C 295.519531 254.175781 293.007812 254.632812 290.570312 254.632812 C 284.484375 254.632812 281.433594 251.839844 281.433594 246.234375 C 281.433594 240.679688 287.304688 236.851562 299.039062 234.753906 C 299.695312 234.632812 300.277344 234.589844 300.757812 234.625 Z M 56.808594 249.355469 C 59.066406 250.0625 57.703125 257.433594 61.09375 258.433594 C 68.660156 268.308594 55.847656 258.726562 51.570312 257.769531 C 52.117188 257.742188 47.769531 256.535156 49.648438 256.109375 C 48.277344 254.703125 45.210938 249.585938 52.214844 253.007812 C 57.78125 255.796875 58.246094 253.914062 55.59375 249.484375 C 56.085938 249.273438 56.488281 249.253906 56.808594 249.355469 Z M 31.265625 250.792969 C 31.453125 249.851562 35.308594 256.050781 36.007812 258.636719 C 38.125 265.375 44.75 269.257812 45.421875 273.71875 C 52.765625 277.949219 48.996094 284.855469 55.167969 286.804688 C 57.90625 285.414062 58.179688 295.121094 64.007812 293.097656 C 60.765625 294.617188 65.375 296.417969 67 299.242188 C 70.675781 298.742188 78.730469 307.339844 70.707031 304.375 C 67.324219 303.65625 65.015625 300.136719 62.625 297.839844 C 55.527344 293.332031 50.921875 285.792969 47.027344 278.570312 C 42.011719 270.984375 35.96875 263.394531 32.539062 254.523438 C 31.53125 252.21875 31.203125 251.109375 31.265625 250.792969 Z M 87.652344 256.496094 C 87.277344 256.6875 87.257812 257.808594 88.351562 260.261719 L 89 261.3125 C 89.890625 258.414062 88.277344 256.175781 87.652344 256.496094 Z M 62.125 265.171875 C 64.214844 265.625 67.355469 266.75 68.621094 267 C 68.972656 268.5 61.464844 268.269531 68.03125 271.207031 C 64.203125 271.101562 63.050781 270.816406 68.511719 274.160156 C 66.367188 275.878906 72.835938 277.246094 70.617188 279.828125 C 77.203125 284.96875 69.425781 281.128906 66.609375 279.03125 C 64.949219 277.878906 58.167969 275.589844 59.226562 274.085938 C 67.222656 278.28125 61.257812 273.902344 57.734375 271.113281 C 64.179688 272.691406 52.570312 266.339844 58.710938 268.015625 C 60.535156 268.457031 55.949219 264.25 61.960938 267.3125 C 59 264.921875 60.039062 264.71875 62.125 265.171875 Z M 102.214844 281.285156 C 101.390625 280.992188 102.207031 284.179688 104.042969 286.101562 C 107.953125 290.761719 104.976562 283.457031 103.617188 282.910156 C 102.957031 281.867188 102.488281 281.382812 102.214844 281.285156 Z M 67.699219 285.863281 C 69.878906 285.886719 73.4375 286.867188 75.636719 288.039062 C 85.277344 290.183594 73.585938 292.769531 69.730469 289.8125 L 68.105469 289.460938 C 64.738281 286.785156 65.523438 285.839844 67.699219 285.863281 Z M 79.21875 286.878906 C 80.019531 286.707031 83.664062 288.203125 85.214844 289.644531 C 89.835938 290.269531 89.855469 292.378906 84.753906 291.066406 C 83.847656 290.507812 82.382812 290.539062 81.910156 289.367188 C 79.28125 287.6875 78.734375 286.980469 79.21875 286.878906 Z M 85.363281 286.949219 C 86.820312 286.925781 89.207031 287.339844 89.960938 288.445312 C 100.078125 290.070312 89.320312 290.777344 86.324219 288.113281 C 83.378906 287.4375 83.90625 286.976562 85.363281 286.949219 Z M 85.363281 292.652344 C 86.457031 292.414062 93.601562 295.363281 88.464844 294.703125 L 86.96875 294.222656 C 85.308594 293.179688 85 292.734375 85.363281 292.652344 Z M 119.417969 294.371094 C 119.734375 294.484375 120.058594 294.773438 120.285156 295.347656 C 117.625 295.304688 118.460938 294.035156 119.417969 294.371094 Z M 85.398438 297.140625 C 87.476562 297.339844 95.464844 301.703125 88.390625 299.703125 L 87.300781 299.28125 L 86.066406 298.707031 C 84.664062 297.464844 84.707031 297.074219 85.398438 297.140625 Z M 102.582031 308.636719 C 103.542969 308.484375 111.421875 309.199219 104.726562 309.136719 C 102.710938 308.828125 102.265625 308.6875 102.582031 308.636719 Z M 81.636719 309.800781 C 82.203125 309.925781 83.101562 310.203125 84.421875 310.6875 C 92.878906 315.914062 102.628906 318.675781 111.664062 322.703125 C 119.601562 323.742188 127.972656 325.84375 135.789062 324.160156 C 142.308594 327.421875 149.070312 323.316406 155.609375 326.265625 C 141.160156 329.082031 126.296875 325.996094 111.90625 323.996094 C 102.832031 322.851562 94.730469 319.085938 86.453125 315.503906 C 85.253906 314.9375 84.117188 314.226562 82.964844 313.566406 C 77.273438 310.410156 77.980469 309.765625 83.515625 312.863281 C 85.472656 314.425781 99.351562 320.105469 92.746094 316.351562 C 90.25 315.734375 77.664062 308.914062 81.636719 309.800781 Z M 134.238281 312.3125 C 134.886719 312.726562 134.90625 314.085938 134.882812 315.800781 C 130.535156 320.601562 133.128906 313.835938 130.433594 316.445312 C 127.949219 318.429688 128.539062 315.261719 129.882812 314.507812 C 132.316406 312.421875 133.589844 311.894531 134.238281 312.3125 Z M 170.46875 313.84375 C 174.347656 314.175781 178.789062 315.074219 181.359375 315.136719 C 179.800781 318.414062 170.160156 315.402344 165.929688 316.261719 L 164.101562 316.148438 L 162.976562 315.964844 C 163.273438 313.734375 166.589844 313.507812 170.46875 313.84375 Z M 203.839844 314.894531 C 213.875 314.886719 204.5 316.351562 199.890625 316.335938 C 194.652344 315.105469 202.261719 315.140625 203.839844 314.894531 Z M 143.390625 316.207031 C 144.195312 316.113281 144.46875 316.746094 142.191406 318.21875 L 141.363281 318.476562 C 141.25 317.097656 142.589844 316.296875 143.390625 316.207031 Z M 139.570312 316.796875 C 139.71875 317.023438 139.390625 317.679688 138.113281 319.027344 C 134.398438 319.269531 139.128906 316.109375 139.570312 316.796875 Z M 103.359375 317.828125 C 104.265625 317.601562 114.027344 320.417969 115.28125 320.15625 C 125.234375 323.851562 109.34375 321.355469 106.054688 319.289062 C 103.746094 318.3125 103.058594 317.90625 103.359375 317.828125 Z M 151.4375 318.308594 C 151.460938 318.558594 150.941406 319.136719 149.484375 320.191406 L 148.265625 320.984375 C 146.535156 319.789062 151.375 317.566406 151.4375 318.308594 Z M 151.4375 318.308594 "/>
</g>
</svg>
